<?xml version="1.0" standalone="no"?>
<!DOCTYPE svg PUBLIC "-//W3C//DTD SVG 20010904//EN"
 "http://www.w3.org/TR/2001/REC-SVG-20010904/DTD/svg10.dtd">
<svg version="1.0" xmlns="http://www.w3.org/2000/svg"
 width="210.000000pt" height="210.000000pt" viewBox="0 0 210.000000 210.000000"
 preserveAspectRatio="xMidYMid meet">
<metadata>
Created by potrace 1.14, written by Peter Selinger 2001-2017
</metadata>
<g transform="translate(0.000000,210.000000) scale(0.100000,-0.100000)"
fill="#000000" stroke="none">
<path d="M617 1463 l-418 -417 418 -418 418 -418 418 418 417 417 -417 417
-418 417 -418 -416z"/>
<path d="M1314 1739 c-4 -7 139 -156 347 -365 l354 -354 -355 -355 c-283 -283
-352 -357 -342 -367 10 -10 86 62 380 355 l367 367 -365 365 c-201 201 -368
365 -372 365 -4 0 -10 -5 -14 -11z"/>
<path d="M357 1352 l-317 -317 319 -319 c210 -210 323 -316 331 -311 8 5 -91
111 -299 319 l-311 311 309 309 c274 274 321 326 293 326 -4 0 -150 -143 -325
-318z"/>
</g>
</svg>
